<svg width="51" height="51" viewBox="0 0 51 51" fill="none" xmlns="http://www.w3.org/2000/svg">
<path fill-rule="evenodd" clip-rule="evenodd" d="M25.5 8.5C22.5266 8.49946 19.6051 9.27879 17.027 10.7602C14.449 12.2416 12.3046 14.3733 10.8078 16.9425C9.31106 19.5117 8.51435 22.4286 8.49719 25.4019C8.48003 28.3752 9.24303 31.3011 10.71 33.8874C11.7016 32.5987 12.9762 31.5554 14.4353 30.838C15.8945 30.1205 17.4991 29.7483 19.125 29.75H31.875C33.501 29.7483 35.1056 30.1205 36.5647 30.838C38.0239 31.5554 39.2985 32.5987 40.29 33.8874C41.757 31.3011 42.52 28.3752 42.5029 25.4019C42.4857 22.4286 41.689 19.5117 40.1922 16.9425C38.6955 14.3733 36.5511 12.2416 33.973 10.7602C31.3949 9.27879 28.4734 8.49946 25.5 8.5ZM42.3789 38.4115C42.6452 38.0644 42.9002 37.7088 43.1439 37.3448C45.4997 33.8442 46.7555 29.7194 46.75 25.5C46.75 13.7636 37.2364 4.25 25.5 4.25C13.7636 4.25 4.25002 13.7636 4.25002 25.5C4.24333 30.1681 5.78011 34.7075 8.62115 38.4115L8.61052 38.4498L9.3649 39.3274C11.3579 41.6575 13.8325 43.5277 16.618 44.8091C19.4036 46.0905 22.4339 46.7527 25.5 46.75C25.959 46.75 26.4152 46.7358 26.8685 46.7075C30.7029 46.4657 34.3988 45.1838 37.5594 42.9994C39.0709 41.9566 40.4409 40.7223 41.6351 39.3274L42.3895 38.4498L42.3789 38.4115ZM25.5 12.75C23.8093 12.75 22.1878 13.4217 20.9922 14.6172C19.7967 15.8127 19.125 17.4342 19.125 19.125C19.125 20.8158 19.7967 22.4373 20.9922 23.6328C22.1878 24.8284 23.8093 25.5 25.5 25.5C27.1908 25.5 28.8123 24.8284 30.0078 23.6328C31.2034 22.4373 31.875 20.8158 31.875 19.125C31.875 17.4342 31.2034 15.8127 30.0078 14.6172C28.8123 13.4217 27.1908 12.75 25.5 12.75Z" fill="#222222"/>
</svg>
