<svg width="38" height="38" viewBox="0 0 38 38" fill="none" xmlns="http://www.w3.org/2000/svg">
<path d="M9.50065 30.083V15.833C9.50065 13.3135 10.5015 10.8971 12.2831 9.11549C14.0647 7.3339 16.4811 6.33301 19.0007 6.33301C21.5202 6.33301 23.9366 7.3339 25.7182 9.11549C27.4998 10.8971 28.5007 13.3135 28.5007 15.833V30.083M9.50065 30.083H28.5007M9.50065 30.083H6.33398M28.5007 30.083H31.6673M17.4173 34.833H20.584" stroke="black" stroke-width="1.16667" stroke-linecap="round" stroke-linejoin="round"/>
<path d="M19.0013 6.33317C19.8758 6.33317 20.5846 5.62429 20.5846 4.74984C20.5846 3.87539 19.8758 3.1665 19.0013 3.1665C18.1269 3.1665 17.418 3.87539 17.418 4.74984C17.418 5.62429 18.1269 6.33317 19.0013 6.33317Z" stroke="black" stroke-width="1.16667"/>
</svg>
